Coordinates
version=1
nRows=11
nColumns=40
inDegrees=yes

Units are S.I. units (second, meters, Newtons, ...)
Angles are in degrees.

endheader
time	pelvis_tilt	pelvis_list	pelvis_rotation	pelvis_tx	pelvis_ty	pelvis_tz	hip_flexion_r	hip_adduction_r	hip_rotation_r	knee_angle_r	knee_angle_r_beta	ankle_angle_r	subtalar_angle_r	mtp_angle_r	hip_flexion_l	hip_adduction_l	hip_rotation_l	knee_angle_l	knee_angle_l_beta	ankle_angle_l	subtalar_angle_l	mtp_angle_l	lumbar_extension	lumbar_bending	lumbar_rotation	arm_flex_r	arm_add_r	arm_rot_r	elbow_flex_r	pro_sup_r	wrist_flex_r	wrist_dev_r	arm_flex_l	arm_add_l	arm_rot_l	elbow_flex_l	pro_sup_l	wrist_flex_l	wrist_dev_l
     12.30750000	     -2.85827425	     -4.52025395	    -12.49233680	      1.03532504	      0.92845358	      0.51132764	     16.85189326	      3.27985822	     -4.87951341	     21.61371405	     21.61371405	      9.38091795	      1.76218387	     -2.76527480	     -3.25745525	     -7.07767690	    -13.17373023	     15.64371837	     15.64371837	     19.38110200	    -10.92201760	      2.92765455	     -8.09312288	      7.60339248	      1.50526395	    -11.32816345	    -15.25262339	    -10.49057803	     41.19447205	     45.81343864	      0.00000000	      0.00000000	     35.75005835	    -24.71475456	     -7.62242369	     70.93581023	     48.04161964	      0.00000000	      0.00000000
     12.33200000	     -3.00224069	     -4.78658746	    -11.95586145	      1.03584296	      0.92859053	      0.51621823	     16.35364603	      3.79828830	     -5.31355972	     21.32403699	     21.32403699	      9.61333276	      1.56943270	     -2.71763767	     -2.82391916	     -7.91033787	    -12.67614353	     16.88734329	     16.88734329	     19.25349717	    -11.29018500	      3.04692919	     -8.10860058	      7.64091401	      1.49347743	    -10.64211542	    -15.49718424	    -10.37778382	     41.92155168	     45.78367396	      0.00000000	      0.00000000	     34.71904587	    -24.17255572	     -7.24393513	     70.47507330	     47.99712692	      0.00000000	      0.00000000
     12.35650000	     -2.93327514	     -4.75253301	    -11.46861050	      1.03644656	      0.92907869	      0.52078384	     15.76815989	      3.94274771	     -5.61932970	     21.18933945	     21.18933945	      9.96312887	      1.38515912	     -2.75897133	     -2.71027890	     -8.30662800	    -12.28543724	     17.78855131	     17.78855131	     18.94552000	    -11.43282654	      3.08247219	     -8.25872231	      7.30065634	      1.69510886	     -9.79887747	    -15.62632482	    -10.33318010	     42.41217408	     45.76797589	      0.00000000	      0.00000000	     33.43957666	    -23.23808283	     -6.81538184	     70.04848853	     47.94964257	      0.00000000	      0.00000000
     12.38100000	     -3.20616169	     -5.24995167	    -10.81801252	      1.03658443	      0.92903417	      0.52523705	     15.17910809	      4.72619834	     -6.21354619	     20.47221967	     20.47221967	     10.03704298	      1.32215189	     -2.60502640	     -1.40460193	     -9.53686874	    -11.33407611	     20.33399940	     20.33399940	     18.88680996	    -12.42857861	      3.03419256	     -8.07695423	      7.66138965	      1.52271755	     -8.93009623	    -15.96223941	    -10.12528605	     43.63537186	     45.71604688	      0.00000000	      0.00000000	     31.85302205	    -22.76854154	     -6.33427329	     69.20469371	     47.88703424	      0.00000000	      0.00000000
     12.40550000	     -3.27710907	     -5.40078032	    -10.24878629	      1.03685659	      0.92920695	      0.52944011	     14.65461434	      5.11745913	     -6.50476754	     20.16288337	     20.16288337	     10.26536764	      0.96255971	     -2.61587119	     -0.36146743	    -10.27924354	    -10.52667384	     22.63103927	     22.63103927	     18.84355059	    -13.06020307	      3.48281864	     -7.98870544	      7.62239364	      1.35745963	     -8.28439527	    -16.49255821	     -8.96356764	     46.19821737	     45.56716908	      0.00000000	      0.00000000	     29.85043794	    -22.23213777	     -5.68070307	     68.13957591	     47.79716112	      0.00000000	      0.00000000
     12.43000000	     -3.20135955	     -5.65408538	     -9.65244574	      1.03715025	      0.92962493	      0.53346110	     13.81455042	      5.57189711	     -6.96104015	     19.58079509	     19.58079509	     10.45537130	      0.98612620	     -2.55645558	      0.69537883	    -11.11406331	     -9.63332849	     25.18075771	     25.18075771	     18.37039628	    -13.87863126	      3.13797928	     -8.06305073	      7.61862367	      1.59430968	     -7.11440821	    -16.76485705	     -8.77370294	     46.97267985	     45.53741585	      0.00000000	      0.00000000	     27.85523597	    -21.11521877	     -5.11933173	     67.24922551	     47.72469935	      0.00000000	      0.00000000
     12.45450000	     -3.11771525	     -5.82569196	     -9.05324998	      1.03731807	      0.92987301	      0.53729826	     13.12874840	      5.95867229	     -7.25566991	     19.23889030	     19.23889030	     10.66660444	      0.66560044	     -2.60144283	      2.00966231	    -11.88042512	     -8.68671185	     28.07871750	     28.07871750	     17.53311117	    -14.81298336	      2.19570636	     -8.03965199	      7.55352140	      1.44076598	     -5.66538806	    -17.12124817	     -8.03642086	     48.38806842	     45.46346662	      0.00000000	      0.00000000	     25.47124134	    -20.29881488	     -4.56367266	     65.66130913	     47.63291142	      0.00000000	      0.00000000
     12.47900000	     -2.95775409	     -6.06370271	     -8.43751199	      1.03741838	      0.93009497	      0.54100556	     12.32018631	      6.39795791	     -7.63667862	     18.81843793	     18.81843793	     10.94419082	      0.53877247	     -2.58557419	      3.51803113	    -12.73670178	     -7.67237216	     31.40362931	     31.40362931	     16.60818281	    -15.64812515	      1.41184111	     -8.12689665	      7.52282191	      1.65920917	     -4.06455871	    -17.34548383	     -7.98640482	     49.19221303	     45.44235533	      0.00000000	      0.00000000	     23.03610563	    -19.13244202	     -3.94797800	     64.37168411	     47.54711463	      0.00000000	      0.00000000
     12.50350000	     -2.83277880	     -6.22289731	     -7.79210494	      1.03731305	      0.93005386	      0.54456351	     11.70587363	      6.76898310	     -7.90886335	     18.60921111	     18.60921111	     11.20610141	      0.11505931	     -2.57540581	      5.37819218	    -13.54767968	     -6.60171549	     35.11456738	     35.11456738	     15.25362483	    -16.43544673	      0.13118607	     -8.10997349	      7.42498558	      1.51976660	     -2.15946048	    -17.44457404	     -7.88947027	     50.21729194	     45.41321390	      0.00000000	      0.00000000	     20.30005404	    -18.16514673	     -3.29692680	     62.45542425	     47.44652565	      0.00000000	      0.00000000
     12.52800000	     -2.55979709	     -6.45033916	     -7.15353474	      1.03713680	      0.92984338	      0.54812414	     11.03674750	      7.26066571	     -7.85876022	     18.58037581	     18.58037581	     11.55020965	     -0.84796857	     -2.60075298	      7.12135016	    -14.54273145	     -5.81988263	     38.69767622	     38.69767622	     11.95204242	    -17.57128889	     -5.32894499	     -8.17646474	      7.34924234	      1.45192788	      0.02482597	    -17.83669048	     -6.62665100	     51.16395339	     45.35040147	      0.00000000	      0.00000000	     17.96932318	    -17.05293490	     -2.58025146	     59.16982121	     47.31906587	      0.00000000	      0.00000000
     12.55250000	     -2.28171283	     -6.60202597	     -6.46918292	      1.03667744	      0.92939296	      0.55140035	     10.54351568	      7.60417360	     -8.02744930	     18.82231038	     18.82231038	     12.00122039	     -1.56611281	     -2.65468240	      9.33667369	    -15.38113844	     -4.68208133	     42.99955401	     42.99955401	      9.79446994	    -18.08163732	     -6.86243522	     -8.32386378	      7.20168376	      1.21602272	      2.42116731	    -17.76421445	     -6.76338717	     52.33665847	     45.33236593	      0.00000000	      0.00000000	     15.11493947	    -16.14420190	     -1.82218962	     56.84427508	     47.20264295	      0.00000000	      0.00000000
